:SAMPLES-PER-SECOND 30
:FULLY-SPECIFIED
:DEGREES
364
root  -3.39491 18.3383 64.1187 62.4073 -9.41057 4.73503
RightUpLeg  -36.7994 -3.89993 1.84737
RightLeg  81.8094 14.9166 -13.3344
RightFoot  -19.0772 0.115957 1.07243
RightToes  5.82077e-011 -3.18055e-015 -2.98177e-016
Spine  25.3266 -6.46995 3.85134
Spine1  -5.74659 -5.07244 -12.2056
HEad  -18.6363 11.9303 8.64555
LeftShoulder1  -3.88251e-019 9.70628e-020 -3.87848e-018
LeftArm  -5.8051 1.39889 -61.5985
LeftForeArm  25.908 -5.31723 -6.22352
LeftHand  -13.8908 -11.957 79.8328
RightShoulder  2.49066 8.14975 10.7493
RightArm  1.29288 18.9363 80.2822
RightForeArm  9.07265 11.1964 -9.72363
RightHand  -10.589 9.57892 -71.0981
LeftUpLeg  -72.4353 -5.71931 -15.7117
LeftLeg  116.208 -22.758 16.8034
LeftFoot  -5.13377 0.0719978 -1.24289
LeftToes  9.37148e-011 4.50685e-012 -4.11107e-011
365
root  -3.26732 18.3122 64.7106 62.7935 -9.26927 7.37163
RightUpLeg  -35.7868 -6.66508 -0.263886
RightLeg  80.1892 14.6951 -11.7448
RightFoot  -18.2657 0.118772 1.39194
RightToes  5.82077e-011 -3.18055e-015 -2.98177e-016
Spine  22.8839 -7.54336 3.57081
Spine1  -3.40352 -6.39667 -10.0667
HEad  -17.9757 12.9889 8.49866
LeftShoulder1  -3.88251e-019 9.70628e-020 -3.87848e-018
LeftArm  -5.87929 4.51031 -61.3031
LeftForeArm  25.2416 -8.11393 -6.00713
LeftHand  -12.9888 -11.9189 76.1715
RightShoulder  2.47828 8.13646 10.6855
RightArm  1.98982 18.5037 81.1656
RightForeArm  10.3351 11.6989 -9.44601
RightHand  -10.9568 9.89974 -71.8128
LeftUpLeg  -70.3322 -8.34887 -17.6195
LeftLeg  112.844 -22.5639 18.5849
LeftFoot  -4.38566 0.00841178 -0.26269
LeftToes  9.37148e-011 4.50685e-012 -4.11107e-011
366
root  -3.10249 18.3421 65.3538 63.3467 -8.97565 9.5479
RightUpLeg  -35.3889 -9.41884 -2.26444
RightLeg  79.5196 14.8595 -8.88103
RightFoot  -16.0615 0.113031 2.72306
RightToes  5.82077e-011 -3.18055e-015 -2.98177e-016
Spine  20.6806 -8.56217 4.40305
Spine1  -1.92988 -7.54479 -8.58148
HEad  -17.3063 13.4814 8.15677
LeftShoulder1  -3.88251e-019 9.70628e-020 -3.87848e-018
LeftArm  -5.11963 8.2903 -61.0871
LeftForeArm  23.6402 -12.8807 -5.53052
LeftHand  -12.3326 -12.0761 72.7927
RightShoulder  2.48528 8.14532 10.7198
RightArm  2.08954 17.7946 81.7402
RightForeArm  12.2828 11.881 -9.42729
RightHand  -11.2725 10.0719 -72.7644
LeftUpLeg  -68.531 -10.95 -18.818
LeftLeg  109.833 -21.9547 19.6229
LeftFoot  -3.4738 0.0189807 -0.330559
LeftToes  9.37148e-011 4.50685e-012 -4.11107e-011
367
root  -2.92358 18.4344 65.9644 63.7918 -8.79978 10.1809
RightUpLeg  -35.8608 -10.4715 -3.66073
RightLeg  80.3321 15.3289 -5.36961
RightFoot  -12.491 0.00660756 4.54387
RightToes  5.82077e-011 -3.18055e-015 -2.98177e-016
Spine  19.465 -8.9003 5.95174
Spine1  -1.31828 -7.86647 -7.50633
HEad  -17.3284 13.5538 7.66025
LeftShoulder1  -3.88251e-019 9.70628e-020 -3.87848e-018
LeftArm  -2.55854 12.4345 -61.1979
LeftForeArm  18.9279 -18.6873 -3.36661
LeftHand  -12.27 -12.4121 71.4329
RightShoulder  2.55818 8.27864 11.0182
RightArm  2.27727 17.3009 81.5223
RightForeArm  14.0687 11.9271 -9.327
RightHand  -11.5341 10.2514 -73.3992
LeftUpLeg  -66.9713 -12.2243 -19.1449
LeftLeg  107.55 -21.2375 19.9802
LeftFoot  -3.08402 0.085334 -1.07215
LeftToes  9.37148e-011 4.50685e-012 -4.11107e-011
368
root  -2.7427 18.5919 66.4464 63.9082 -8.9726 8.54274
RightUpLeg  -37.2245 -8.7863 -4.06099
RightLeg  82.5935 15.7219 -2.64797
RightFoot  -9.47201 -0.150055 5.48186
RightToes  5.82077e-011 -3.18055e-015 -2.98177e-016
Spine  19.478 -8.23339 8.10593
Spine1  -0.977447 -6.79272 -7.44874
HEad  -17.9456 13.209 7.05448
LeftShoulder1  -3.88251e-019 9.70628e-020 -3.87848e-018
LeftArm  1.78828 15.415 -61.9574
LeftForeArm  10.5048 -23.7621 1.36143
LeftHand  -12.4557 -12.7088 71.3297
RightShoulder  2.69823 8.48665 11.6446
RightArm  3.10979 17.5076 80.3224
RightForeArm  14.9629 11.832 -8.85696
RightHand  -11.7628 10.4931 -73.6436
LeftUpLeg  -65.5637 -11.2228 -18.6835
LeftLeg  106.002 -20.6863 20.0811
LeftFoot  -3.21693 0.14608 -1.79169
LeftToes  9.37148e-011 4.50685e-012 -4.11107e-011
369
root  -2.55061 18.7819 66.8049 63.7752 -9.31238 5.59735
RightUpLeg  -39.1954 -6.10682 -3.70874
RightLeg  86.0628 15.8749 -1.44835
RightFoot  -9.01591 -0.148251 4.63068
RightToes  5.82077e-011 -3.18055e-015 -2.98177e-016
Spine  20.2894 -7.24385 10.9751
Spine1  -0.732932 -4.90774 -8.86043
HEad  -18.4411 12.6556 6.41684
LeftShoulder1  -3.88251e-019 9.70628e-020 -3.87848e-018
LeftArm  1.6532 15.9368 -62.6308
LeftForeArm  6.24555 -27.3751 5.32656
LeftHand  -12.3643 -12.8028 70.6362
RightShoulder  2.84207 8.64043 12.355
RightArm  3.62803 17.9072 79.0702
RightForeArm  15.8325 11.4323 -8.49825
RightHand  -11.9875 10.7047 -73.9642
LeftUpLeg  -64.2295 -8.90275 -17.8135
LeftLeg  104.874 -20.2978 20.1742
LeftFoot  -3.43441 0.197282 -2.44336
LeftToes  9.37148e-011 4.50685e-012 -4.11107e-011
